<svg xmlns="http://www.w3.org/2000/svg" width="352.8" height="28" viewBox="0 0 352.8 28"><defs><style>.cls-1{fill:#669f09;}</style></defs><title>pics-4</title><g id="Capa_2" data-name="Capa 2"><g id="muestras"><polygon class="cls-1" points="25.05 0 50.1 0 37.57 14 25.05 28 12.52 14 0 0 25.05 0"/><polygon class="cls-1" points="75.33 0 100.38 0 87.86 14 75.33 28 62.81 14 50.29 0 75.33 0"/><polygon class="cls-1" points="126.61 0 151.66 0 139.13 14 126.61 28 114.08 14 101.56 0 126.61 0"/><polygon class="cls-1" points="176.89 0 201.94 0 189.42 14 176.89 28 164.37 14 151.85 0 176.89 0"/><polygon class="cls-1" points="227.18 0 252.23 0 239.7 14 227.18 28 214.66 14 202.13 0 227.18 0"/><polygon class="cls-1" points="277.47 0 302.51 0 289.99 14 277.47 28 264.94 14 252.42 0 277.47 0"/><polygon class="cls-1" points="327.75 0 352.8 0 340.28 14 327.75 28 315.23 14 302.7 0 327.75 0"/></g></g></svg>